<svg xmlns="http://www.w3.org/2000/svg"  viewBox="0 0 64 64" width="512px" height="512px"><path fill="#eec78e" d="M34,4c-7.18,0-13,5.82-13,13v23h14v-4h5c3.866,0,7-3.134,7-7V17C47,9.82,41.18,4,34,4z"/><path fill="#db9e68" d="M35,40H21v0c0-2.209,1.791-4,4-4h10V40z"/><path fill="#dbdee3" d="M47,62H21V40h20c3.314,0,6,2.686,6,6V62z"/><path fill="#f68820" d="M34,40h-3c2.209,0,4,1.791,4,4v18h3V44C38,41.791,36.209,40,34,40z"/><path fill="#5c76b2" d="M41,40h-4.5c2.209,0,4,1.791,4,4v2c0,2.209-1.791,4-4,4s-4-1.791-4-4v-2c0-2.209-1.791-4-4-4H21 c-3.314,0-6,2.686-6,6v16h32V46C47,42.686,44.314,40,41,40z"/><path fill="#dbdee3" d="M15,62h12V46c0-3.314-2.686-6-6-6h0c-3.314,0-6,2.686-6,6V62z"/><circle cx="44" cy="21" r="1" fill="#55525b"/><circle cx="38" cy="21" r="1" fill="#55525b"/><path fill="#55525b" d="M47,2H29c-5.523,0-10,4.477-10,10v16c0,2.209,1.791,4,4,4h2c2.209,0,4-1.791,4-4v-4.5h2c1.105,0,2-0.895,2-2 V18c0-1.105,0.895-2,2-2h4c2.882,0,5.472-1.226,7.296-3.177c0.343,1.009,0.569,2.072,0.653,3.177H47c1.105,0,2-0.895,2-2V4 C49,2.895,48.105,2,47,2z"/><path fill="#db9e68" d="M29,20c-2.209,0-4,1.791-4,4c0,2.209,1.791,4,4,4V20z"/><path fill="#db9e68" d="M43,30L43,30c-1.105,0-2-0.895-2-2v-5h0c2.209,0,4,1.791,4,4v1C45,29.105,44.105,30,43,30z"/><path fill="#55525b" d="M41,33.5L41,33.5c1.105,0,2-0.895,2-2v0h-4v0C39,32.605,39.895,33.5,41,33.5z"/></svg>